# xmcd CD database file
#
# Track frame offsets:
#	150
#	25087
#	52865
#	73942
#	98387
#	116830
#	136227
#	160780
#	187820
#	216220
#	246375
#	281325
#
# Disc length: 3932 seconds
#
# Revision: 2
# Processed by: cddbd v1.5.1PL0 Copyright (c) Steve Scherf et al.
# Submitted via: CDex 1.51
#
DISCID=a00f5a0c
DTITLE=Triosence - Away For A While
DYEAR=2005
DGENRE=Jazz
TTITLE0=My Best Friend
TTITLE1=Together
TTITLE2=Maybe There's a Princess Waiting
TTITLE3=Dream of Dancing
TTITLE4=When Time Stands Still
TTITLE5=Visit Home
TTITLE6=You're My Spring
TTITLE7=Be.Hardi-hood Blues
TTITLE8=Only One Evening
TTITLE9=Falling Grace
TTITLE10=Springville
TTITLE11=My One and Only Love
EXTD=YEAR: 2005
EXTT0=
EXTT1=
EXTT2=
EXTT3=
EXTT4=
EXTT5=
EXTT6=
EXTT7=
EXTT8=
EXTT9=
EXTT10=
EXTT11=
PLAYORDER=
